# xmcd CD database file
#
# Track frame offsets:
#	183
#	22190
#	41830
#	63178
#	80638
#	95763
#	115973
#	136048
#	155198
#	172203
#
# Disc length: 2469 seconds
#
# Revision: 0
# Processed by: cddbd v1.5.2PL0 Copyright (c) Steve Scherf et al.
# Submitted via: CDex 1.70beta2
#
DISCID=8f09a30a
DTITLE=Angel Villalona - Angellito Villalona
DYEAR=2002
DGENRE=Merengue
TTITLE0=Donde Estara
TTITLE1=Pasito Tun-Tun
TTITLE2=Corazon Porque Volaste
TTITLE3=Que No Se Pare El Baile
TTITLE4=La Ultima Copa
TTITLE5=Lena Al Fuego
TTITLE6=El Rumbon
TTITLE7=Piel A Piel Los Dos
TTITLE8=Muchachita
TTITLE9=Pa' Todo El Ano
EXTD=YEAR: 2002
EXTT0=
EXTT1=
EXTT2=
EXTT3=
EXTT4=
EXTT5=
EXTT6=
EXTT7=
EXTT8=
EXTT9=
PLAYORDER=
